<svg width="128" height="128" viewBox="0 0 128 128" fill="none" xmlns="http://www.w3.org/2000/svg">
<circle cx="64" cy="64" r="64" fill="white"/>
<path d="M67.2789 35.1271V97.5H41.5V35.1271H67.2789ZM84.7814 61.9746C83.9673 60.8898 82.9271 59.9859 81.6608 59.2627C80.3945 58.5395 78.8568 58.178 77.0477 58.178C75.5101 58.178 73.9724 58.6299 72.4347 59.5339C70.897 60.4379 69.6307 61.839 68.6357 63.7373C67.7312 65.6356 67.2789 68.0763 67.2789 71.0593L62.3945 59.5339C62.3945 54.5621 63.4347 50.1328 65.5151 46.2458C67.5955 42.3588 70.309 39.2853 73.6558 37.0254C77.093 34.6751 80.7111 33.5 84.5101 33.5C86.7714 33.5 88.9422 34.0876 91.0226 35.2627C93.1935 36.3475 94.6859 37.6582 95.5 39.1949L84.7814 61.9746Z" fill="black"/>
</svg>
